<mxfile host="65bd71144e" pages="2">
    <diagram id="nznKPQSnIaW0fEdaZJQG" name="ucs-2">
        <mxGraphModel dx="2956" dy="1164" grid="1" gridSize="10" guides="1" tooltips="1" connect="1" arrows="1" fold="1" page="0" pageScale="1" pageWidth="827" pageHeight="1169" math="0" shadow="0">
            <root>
                <mxCell id="0"/>
                <mxCell id="1" parent="0"/>
                <mxCell id="dLSepJQO657RZorN-44j-17" value="" style="edgeStyle=orthogonalEdgeStyle;rounded=0;orthogonalLoop=1;jettySize=auto;html=1;entryX=0;entryY=0.5;entryDx=0;entryDy=0;" parent="1" source="dLSepJQO657RZorN-44j-12" target="dLSepJQO657RZorN-44j-13" edge="1">
                    <mxGeometry relative="1" as="geometry"/>
                </mxCell>
                <mxCell id="dLSepJQO657RZorN-44j-12" value="Participant" style="shape=umlActor;verticalLabelPosition=bottom;verticalAlign=top;html=1;outlineConnect=0;" parent="1" vertex="1">
                    <mxGeometry x="80" y="250" width="30" height="60" as="geometry"/>
                </mxCell>
                <mxCell id="dLSepJQO657RZorN-44j-13" value="" style="ellipse;whiteSpace=wrap;html=1;" parent="1" vertex="1">
                    <mxGeometry x="180" y="255" width="80" height="50" as="geometry"/>
                </mxCell>
                <mxCell id="dLSepJQO657RZorN-44j-14" value="Join" style="text;html=1;strokeColor=none;fillColor=none;align=center;verticalAlign=middle;whiteSpace=wrap;rounded=0;" parent="1" vertex="1">
                    <mxGeometry x="190" y="265" width="60" height="30" as="geometry"/>
                </mxCell>
                <mxCell id="dLSepJQO657RZorN-44j-24" value="" style="edgeStyle=orthogonalEdgeStyle;rounded=0;orthogonalLoop=1;jettySize=auto;html=1;entryX=0.5;entryY=1;entryDx=0;entryDy=0;" parent="1" source="dLSepJQO657RZorN-44j-15" target="dLSepJQO657RZorN-44j-13" edge="1">
                    <mxGeometry relative="1" as="geometry">
                        <mxPoint x="220" y="310" as="targetPoint"/>
                    </mxGeometry>
                </mxCell>
                <mxCell id="dLSepJQO657RZorN-44j-25" value="" style="edgeStyle=orthogonalEdgeStyle;rounded=0;orthogonalLoop=1;jettySize=auto;html=1;entryX=0;entryY=0.5;entryDx=0;entryDy=0;" parent="1" source="dLSepJQO657RZorN-44j-15" target="dLSepJQO657RZorN-44j-21" edge="1">
                    <mxGeometry relative="1" as="geometry"/>
                </mxCell>
                <mxCell id="dLSepJQO657RZorN-44j-15" value="" style="ellipse;whiteSpace=wrap;html=1;" parent="1" vertex="1">
                    <mxGeometry x="180" y="360" width="80" height="50" as="geometry"/>
                </mxCell>
                <mxCell id="dLSepJQO657RZorN-44j-16" value="Request to join" style="text;html=1;strokeColor=none;fillColor=none;align=center;verticalAlign=middle;whiteSpace=wrap;rounded=0;" parent="1" vertex="1">
                    <mxGeometry x="190" y="370" width="60" height="30" as="geometry"/>
                </mxCell>
                <mxCell id="dLSepJQO657RZorN-44j-18" value="" style="endArrow=none;html=1;rounded=0;" parent="1" edge="1">
                    <mxGeometry width="50" height="50" relative="1" as="geometry">
                        <mxPoint x="110" y="280" as="sourcePoint"/>
                        <mxPoint x="180" y="380" as="targetPoint"/>
                    </mxGeometry>
                </mxCell>
                <mxCell id="dLSepJQO657RZorN-44j-19" value="Invited by host" style="text;html=1;strokeColor=none;fillColor=none;align=center;verticalAlign=middle;whiteSpace=wrap;rounded=0;" parent="1" vertex="1">
                    <mxGeometry x="120" y="235" width="60" height="30" as="geometry"/>
                </mxCell>
                <mxCell id="dLSepJQO657RZorN-44j-20" value="Invited by&amp;nbsp; other participant" style="text;html=1;strokeColor=none;fillColor=none;align=center;verticalAlign=middle;whiteSpace=wrap;rounded=0;" parent="1" vertex="1">
                    <mxGeometry x="110" y="360" width="60" height="30" as="geometry"/>
                </mxCell>
                <mxCell id="dLSepJQO657RZorN-44j-21" value="" style="ellipse;whiteSpace=wrap;html=1;" parent="1" vertex="1">
                    <mxGeometry x="350" y="360" width="80" height="50" as="geometry"/>
                </mxCell>
                <mxCell id="dLSepJQO657RZorN-44j-22" value="Join rejected" style="text;html=1;strokeColor=none;fillColor=none;align=center;verticalAlign=middle;whiteSpace=wrap;rounded=0;" parent="1" vertex="1">
                    <mxGeometry x="360" y="370" width="60" height="30" as="geometry"/>
                </mxCell>
                <mxCell id="dLSepJQO657RZorN-44j-26" value="Host accepts" style="text;html=1;strokeColor=none;fillColor=none;align=center;verticalAlign=middle;whiteSpace=wrap;rounded=0;" parent="1" vertex="1">
                    <mxGeometry x="220" y="320" width="60" height="30" as="geometry"/>
                </mxCell>
                <mxCell id="dLSepJQO657RZorN-44j-27" value="Host declines" style="text;html=1;strokeColor=none;fillColor=none;align=center;verticalAlign=middle;whiteSpace=wrap;rounded=0;" parent="1" vertex="1">
                    <mxGeometry x="270" y="390" width="60" height="30" as="geometry"/>
                </mxCell>
                <object placeholders="1" c4Name="[Use Case Diagram] UCS-2" c4Type="ContainerDiagramTitle" c4Description="Author: M.R." label="&lt;font style=&quot;font-size: 16px&quot;&gt;&lt;b&gt;&lt;div style=&quot;text-align: left&quot;&gt;%c4Name%&lt;/div&gt;&lt;/b&gt;&lt;/font&gt;&lt;div style=&quot;text-align: left&quot;&gt;%c4Description%&lt;/div&gt;" id="2">
                    <mxCell style="text;html=1;strokeColor=none;fillColor=none;align=left;verticalAlign=top;whiteSpace=wrap;rounded=0;metaEdit=1;allowArrows=0;resizable=1;rotatable=0;connectable=0;recursiveResize=0;expand=0;pointerEvents=0;points=[[0.25,0,0],[0.5,0,0],[0.75,0,0],[1,0.25,0],[1,0.5,0],[1,0.75,0],[0.75,1,0],[0.5,1,0],[0.25,1,0],[0,0.75,0],[0,0.5,0],[0,0.25,0]];" parent="1" vertex="1">
                        <mxGeometry x="80" y="450" width="260" height="40" as="geometry"/>
                    </mxCell>
                </object>
            </root>
        </mxGraphModel>
    </diagram>
    <diagram id="qfJCqk-rX3XKc_LFbFTo" name="ucs-3">
        <mxGraphModel dx="2956" dy="1164" grid="1" gridSize="10" guides="1" tooltips="1" connect="1" arrows="1" fold="1" page="0" pageScale="1" pageWidth="850" pageHeight="1100" math="0" shadow="0">
            <root>
                <mxCell id="rbG86IPBuTlA1DjwRGyI-0"/>
                <mxCell id="rbG86IPBuTlA1DjwRGyI-1" parent="rbG86IPBuTlA1DjwRGyI-0"/>
                <mxCell id="rbG86IPBuTlA1DjwRGyI-2" value="Participant" style="shape=umlActor;verticalLabelPosition=bottom;verticalAlign=top;html=1;outlineConnect=0;" parent="rbG86IPBuTlA1DjwRGyI-1" vertex="1">
                    <mxGeometry x="350" y="115" width="30" height="60" as="geometry"/>
                </mxCell>
                <mxCell id="rbG86IPBuTlA1DjwRGyI-3" value="" style="edgeStyle=orthogonalEdgeStyle;rounded=0;orthogonalLoop=1;jettySize=auto;html=1;entryX=0;entryY=0.5;entryDx=0;entryDy=0;" parent="rbG86IPBuTlA1DjwRGyI-1" source="rbG86IPBuTlA1DjwRGyI-4" target="rbG86IPBuTlA1DjwRGyI-5" edge="1">
                    <mxGeometry relative="1" as="geometry"/>
                </mxCell>
                <mxCell id="rbG86IPBuTlA1DjwRGyI-4" value="Host" style="shape=umlActor;verticalLabelPosition=bottom;verticalAlign=top;html=1;outlineConnect=0;" parent="rbG86IPBuTlA1DjwRGyI-1" vertex="1">
                    <mxGeometry x="80" y="115" width="30" height="60" as="geometry"/>
                </mxCell>
                <mxCell id="rbG86IPBuTlA1DjwRGyI-5" value="" style="ellipse;whiteSpace=wrap;html=1;" parent="rbG86IPBuTlA1DjwRGyI-1" vertex="1">
                    <mxGeometry x="180" y="120" width="80" height="50" as="geometry"/>
                </mxCell>
                <mxCell id="rbG86IPBuTlA1DjwRGyI-6" value="" style="edgeStyle=orthogonalEdgeStyle;rounded=0;orthogonalLoop=1;jettySize=auto;html=1;" parent="rbG86IPBuTlA1DjwRGyI-1" source="rbG86IPBuTlA1DjwRGyI-7" target="rbG86IPBuTlA1DjwRGyI-2" edge="1">
                    <mxGeometry relative="1" as="geometry"/>
                </mxCell>
                <mxCell id="rbG86IPBuTlA1DjwRGyI-7" value="Record" style="text;html=1;strokeColor=none;fillColor=none;align=center;verticalAlign=middle;whiteSpace=wrap;rounded=0;" parent="rbG86IPBuTlA1DjwRGyI-1" vertex="1">
                    <mxGeometry x="190" y="130" width="60" height="30" as="geometry"/>
                </mxCell>
                <mxCell id="rbG86IPBuTlA1DjwRGyI-8" value="Start recording" style="text;html=1;strokeColor=none;fillColor=none;align=center;verticalAlign=middle;whiteSpace=wrap;rounded=0;" parent="rbG86IPBuTlA1DjwRGyI-1" vertex="1">
                    <mxGeometry x="110" y="100" width="60" height="30" as="geometry"/>
                </mxCell>
                <mxCell id="rbG86IPBuTlA1DjwRGyI-9" value="Ask acknowledgement" style="text;html=1;strokeColor=none;fillColor=none;align=center;verticalAlign=middle;whiteSpace=wrap;rounded=0;" parent="rbG86IPBuTlA1DjwRGyI-1" vertex="1">
                    <mxGeometry x="270" y="100" width="60" height="30" as="geometry"/>
                </mxCell>
                <object placeholders="1" c4Name="[Use Case Diagram] UCS-3" c4Type="ContainerDiagramTitle" c4Description="Author: M.R." label="&lt;font style=&quot;font-size: 16px&quot;&gt;&lt;b&gt;&lt;div style=&quot;text-align: left&quot;&gt;%c4Name%&lt;/div&gt;&lt;/b&gt;&lt;/font&gt;&lt;div style=&quot;text-align: left&quot;&gt;%c4Description%&lt;/div&gt;" id="nidfEOaWtrJ2TkC9tCxM-0">
                    <mxCell style="text;html=1;strokeColor=none;fillColor=none;align=left;verticalAlign=top;whiteSpace=wrap;rounded=0;metaEdit=1;allowArrows=0;resizable=1;rotatable=0;connectable=0;recursiveResize=0;expand=0;pointerEvents=0;points=[[0.25,0,0],[0.5,0,0],[0.75,0,0],[1,0.25,0],[1,0.5,0],[1,0.75,0],[0.75,1,0],[0.5,1,0],[0.25,1,0],[0,0.75,0],[0,0.5,0],[0,0.25,0]];" parent="rbG86IPBuTlA1DjwRGyI-1" vertex="1">
                        <mxGeometry x="80" y="230" width="260" height="40" as="geometry"/>
                    </mxCell>
                </object>
            </root>
        </mxGraphModel>
    </diagram>
    <diagram id="RRwfbUODBfJFEVw-AZqB" name="ucs-7">
        <mxGraphModel dx="2956" dy="1164" grid="1" gridSize="10" guides="1" tooltips="1" connect="1" arrows="1" fold="1" page="1" pageScale="1" pageWidth="827" pageHeight="1169" background="#ffffff" math="0" shadow="0">
            <root>
                <mxCell id="Hm6dGv6e3vqPoljJ0Cd9-0"/>
                <mxCell id="Hm6dGv6e3vqPoljJ0Cd9-1" parent="Hm6dGv6e3vqPoljJ0Cd9-0"/>
                <mxCell id="ZC3Y7G_-0FY7YYJbZx9n-0" value="" style="edgeStyle=orthogonalEdgeStyle;rounded=0;orthogonalLoop=1;jettySize=auto;html=1;entryX=0;entryY=0.5;entryDx=0;entryDy=0;strokeColor=#030303;" parent="Hm6dGv6e3vqPoljJ0Cd9-1" source="ZC3Y7G_-0FY7YYJbZx9n-1" target="ZC3Y7G_-0FY7YYJbZx9n-2" edge="1">
                    <mxGeometry relative="1" as="geometry"/>
                </mxCell>
                <mxCell id="ZC3Y7G_-0FY7YYJbZx9n-1" value="Customer" style="shape=umlActor;verticalLabelPosition=bottom;verticalAlign=top;html=1;outlineConnect=0;fontColor=#030303;strokeColor=#030303;" parent="Hm6dGv6e3vqPoljJ0Cd9-1" vertex="1">
                    <mxGeometry x="40" y="35" width="30" height="60" as="geometry"/>
                </mxCell>
                <mxCell id="ZC3Y7G_-0FY7YYJbZx9n-16" value="" style="edgeStyle=none;html=1;strokeColor=#030303;" parent="Hm6dGv6e3vqPoljJ0Cd9-1" source="ZC3Y7G_-0FY7YYJbZx9n-2" target="ZC3Y7G_-0FY7YYJbZx9n-6" edge="1">
                    <mxGeometry relative="1" as="geometry"/>
                </mxCell>
                <mxCell id="ZC3Y7G_-0FY7YYJbZx9n-2" value="" style="ellipse;whiteSpace=wrap;html=1;strokeColor=#030303;fillColor=none;" parent="Hm6dGv6e3vqPoljJ0Cd9-1" vertex="1">
                    <mxGeometry x="140" y="40" width="80" height="50" as="geometry"/>
                </mxCell>
                <mxCell id="ZC3Y7G_-0FY7YYJbZx9n-3" value="Cancel" style="text;html=1;strokeColor=none;fillColor=none;align=center;verticalAlign=middle;whiteSpace=wrap;rounded=0;fontColor=#030303;" parent="Hm6dGv6e3vqPoljJ0Cd9-1" vertex="1">
                    <mxGeometry x="150" y="50" width="60" height="30" as="geometry"/>
                </mxCell>
                <mxCell id="ZC3Y7G_-0FY7YYJbZx9n-6" value="&lt;font color=&quot;#030303&quot;&gt;Data is removed after 365 days&lt;/font&gt;" style="ellipse;whiteSpace=wrap;html=1;fontColor=#191919;strokeColor=#030303;fillColor=none;" parent="Hm6dGv6e3vqPoljJ0Cd9-1" vertex="1">
                    <mxGeometry x="300" y="25" width="100" height="80" as="geometry"/>
                </mxCell>
                <mxCell id="ZC3Y7G_-0FY7YYJbZx9n-9" value="Decides to cancel account" style="text;html=1;strokeColor=none;fillColor=none;align=center;verticalAlign=middle;whiteSpace=wrap;rounded=0;fontColor=#030303;" parent="Hm6dGv6e3vqPoljJ0Cd9-1" vertex="1">
                    <mxGeometry x="80" y="20" width="60" height="30" as="geometry"/>
                </mxCell>
                <mxCell id="ZC3Y7G_-0FY7YYJbZx9n-13" value="Account cancelled" style="text;html=1;strokeColor=none;fillColor=none;align=center;verticalAlign=middle;whiteSpace=wrap;rounded=0;fontColor=#030303;" parent="Hm6dGv6e3vqPoljJ0Cd9-1" vertex="1">
                    <mxGeometry x="220" y="20" width="60" height="30" as="geometry"/>
                </mxCell>
                <object placeholders="1" c4Name="[Use Case Diagram] UCS-7" c4Type="ContainerDiagramTitle" c4Description="Author: N.H." label="&lt;font style=&quot;font-size: 16px&quot;&gt;&lt;b&gt;&lt;div style=&quot;text-align: left&quot;&gt;%c4Name%&lt;/div&gt;&lt;/b&gt;&lt;/font&gt;&lt;div style=&quot;text-align: left&quot;&gt;%c4Description%&lt;/div&gt;" id="ZC3Y7G_-0FY7YYJbZx9n-15">
                    <mxCell style="text;html=1;strokeColor=none;fillColor=none;align=left;verticalAlign=top;whiteSpace=wrap;rounded=0;metaEdit=1;allowArrows=0;resizable=1;rotatable=0;connectable=0;recursiveResize=0;expand=0;pointerEvents=0;points=[[0.25,0,0],[0.5,0,0],[0.75,0,0],[1,0.25,0],[1,0.5,0],[1,0.75,0],[0.75,1,0],[0.5,1,0],[0.25,1,0],[0,0.75,0],[0,0.5,0],[0,0.25,0]];fontColor=#030303;" parent="Hm6dGv6e3vqPoljJ0Cd9-1" vertex="1">
                        <mxGeometry x="30" y="140" width="260" height="40" as="geometry"/>
                    </mxCell>
                </object>
            </root>
        </mxGraphModel>
    </diagram>
    <diagram id="1sVjEL1SJNfaaevYArfL" name="ucs-6">
        <mxGraphModel dx="2956" dy="1164" grid="1" gridSize="10" guides="1" tooltips="1" connect="1" arrows="1" fold="1" page="1" pageScale="1" pageWidth="827" pageHeight="1169" background="#ffffff" math="0" shadow="0">
            <root>
                <mxCell id="Gk5M4-MliX3AW-8CS8iV-0"/>
                <mxCell id="Gk5M4-MliX3AW-8CS8iV-1" parent="Gk5M4-MliX3AW-8CS8iV-0"/>
                <mxCell id="UanDiCqVeQoTemZnzojw-0" value="" style="edgeStyle=orthogonalEdgeStyle;rounded=0;orthogonalLoop=1;jettySize=auto;html=1;entryX=0;entryY=0.5;entryDx=0;entryDy=0;strokeColor=#030303;" edge="1" parent="Gk5M4-MliX3AW-8CS8iV-1" source="UanDiCqVeQoTemZnzojw-1" target="UanDiCqVeQoTemZnzojw-3">
                    <mxGeometry relative="1" as="geometry"/>
                </mxCell>
                <mxCell id="UanDiCqVeQoTemZnzojw-1" value="Customer" style="shape=umlActor;verticalLabelPosition=bottom;verticalAlign=top;html=1;outlineConnect=0;fontColor=#030303;strokeColor=#030303;" vertex="1" parent="Gk5M4-MliX3AW-8CS8iV-1">
                    <mxGeometry x="40" y="35" width="30" height="60" as="geometry"/>
                </mxCell>
                <mxCell id="UanDiCqVeQoTemZnzojw-2" value="" style="edgeStyle=none;html=1;strokeColor=#030303;" edge="1" parent="Gk5M4-MliX3AW-8CS8iV-1" source="UanDiCqVeQoTemZnzojw-3" target="UanDiCqVeQoTemZnzojw-5">
                    <mxGeometry relative="1" as="geometry"/>
                </mxCell>
                <mxCell id="UanDiCqVeQoTemZnzojw-3" value="" style="ellipse;whiteSpace=wrap;html=1;strokeColor=#030303;fillColor=none;" vertex="1" parent="Gk5M4-MliX3AW-8CS8iV-1">
                    <mxGeometry x="140" y="40" width="80" height="50" as="geometry"/>
                </mxCell>
                <mxCell id="UanDiCqVeQoTemZnzojw-4" value="Record" style="text;html=1;strokeColor=none;fillColor=none;align=center;verticalAlign=middle;whiteSpace=wrap;rounded=0;fontColor=#030303;" vertex="1" parent="Gk5M4-MliX3AW-8CS8iV-1">
                    <mxGeometry x="150" y="50" width="60" height="30" as="geometry"/>
                </mxCell>
                <mxCell id="UanDiCqVeQoTemZnzojw-5" value="&lt;font color=&quot;#030303&quot;&gt;Recording is&lt;br&gt;stored&lt;br&gt;&lt;/font&gt;" style="ellipse;whiteSpace=wrap;html=1;fontColor=#191919;strokeColor=#030303;fillColor=none;" vertex="1" parent="Gk5M4-MliX3AW-8CS8iV-1">
                    <mxGeometry x="300" y="25" width="100" height="80" as="geometry"/>
                </mxCell>
                <mxCell id="UanDiCqVeQoTemZnzojw-6" value="Start recording" style="text;html=1;strokeColor=none;fillColor=none;align=center;verticalAlign=middle;whiteSpace=wrap;rounded=0;fontColor=#030303;" vertex="1" parent="Gk5M4-MliX3AW-8CS8iV-1">
                    <mxGeometry x="80" y="20" width="60" height="30" as="geometry"/>
                </mxCell>
                <mxCell id="UanDiCqVeQoTemZnzojw-7" value="Meeting ends" style="text;html=1;strokeColor=none;fillColor=none;align=center;verticalAlign=middle;whiteSpace=wrap;rounded=0;fontColor=#030303;" vertex="1" parent="Gk5M4-MliX3AW-8CS8iV-1">
                    <mxGeometry x="220" y="20" width="60" height="30" as="geometry"/>
                </mxCell>
                <object placeholders="1" c4Name="[Use Case Diagram] UCS-3" c4Type="ContainerDiagramTitle" c4Description="Author: N.H." label="&lt;font style=&quot;font-size: 16px&quot;&gt;&lt;b&gt;&lt;div style=&quot;text-align: left&quot;&gt;%c4Name%&lt;/div&gt;&lt;/b&gt;&lt;/font&gt;&lt;div style=&quot;text-align: left&quot;&gt;%c4Description%&lt;/div&gt;" id="UanDiCqVeQoTemZnzojw-8">
                    <mxCell style="text;html=1;strokeColor=none;fillColor=none;align=left;verticalAlign=top;whiteSpace=wrap;rounded=0;metaEdit=1;allowArrows=0;resizable=1;rotatable=0;connectable=0;recursiveResize=0;expand=0;pointerEvents=0;points=[[0.25,0,0],[0.5,0,0],[0.75,0,0],[1,0.25,0],[1,0.5,0],[1,0.75,0],[0.75,1,0],[0.5,1,0],[0.25,1,0],[0,0.75,0],[0,0.5,0],[0,0.25,0]];fontColor=#030303;" vertex="1" parent="Gk5M4-MliX3AW-8CS8iV-1">
                        <mxGeometry x="30" y="140" width="260" height="40" as="geometry"/>
                    </mxCell>
                </object>
            </root>
        </mxGraphModel>
    </diagram>
</mxfile>